<?xml version="1.0" encoding="UTF-8"?>
<svg width="1162px" height="320px" viewBox="0 0 1162 320" version="1.1" xmlns="http://www.w3.org/2000/svg" xmlns:xlink="http://www.w3.org/1999/xlink">
    <title>openai</title>
    <g id="页面-1" stroke="none" stroke-width="1" fill="none" fill-rule="evenodd">
        <g id="openai" transform="translate(0.129798, -0.002936)" fill="#44D7B6" fill-rule="nonzero">
            <path d="M365.310202,153.842936 C365.310202,206.162936 398.910202,242.642936 445.470202,242.642936 C492.030202,242.642936 525.630202,206.162936 525.630202,153.842936 C525.630202,101.522936 492.030202,65.0429356 445.470202,65.0429356 C398.910202,65.0429356 365.310202,101.522936 365.310202,153.842936 L365.310202,153.842936 Z M494.910202,153.842936 C494.910202,191.282936 474.510202,215.522936 445.470202,215.522936 C416.430202,215.522936 396.030202,191.282936 396.030202,153.842936 C396.030202,116.402936 416.430202,92.1629356 445.470202,92.1629356 C474.510202,92.1629356 494.910202,116.402936 494.910202,153.842936 Z M612.140202,242.642936 C647.420202,242.642936 667.580202,212.882936 667.580202,177.122936 C667.580202,141.362936 647.420202,111.602936 612.140202,111.602936 C595.820202,111.602936 583.820202,118.082936 575.900202,127.442936 L575.900202,114.002936 L547.100202,114.002936 L547.100202,283.202936 L575.900202,283.202936 L575.900202,226.802936 C583.820202,236.162936 595.820202,242.642936 612.140202,242.642936 Z M575.180202,173.522936 C575.180202,149.762936 588.620202,136.802936 606.380202,136.802936 C627.260202,136.802936 638.540202,153.122936 638.540202,177.122936 C638.540202,201.122936 627.260202,217.442936 606.380202,217.442936 C588.620202,217.442936 575.180202,204.242936 575.180202,180.962936 L575.180202,173.522936 Z M745.520202,242.642936 C770.720202,242.642936 790.640202,229.442936 799.520202,207.362936 L774.800202,198.002936 C770.960202,210.962936 759.680202,218.162936 745.520202,218.162936 C727.040202,218.162936 714.080202,204.962936 711.920202,183.362936 L800.240202,183.362936 L800.240202,173.762936 C800.240202,139.202936 780.800202,111.602936 744.320202,111.602936 C707.840202,111.602936 684.320202,140.162936 684.320202,177.122936 C684.320202,216.002936 709.520202,242.642936 745.520202,242.642936 Z M744.080202,135.842936 C762.320202,135.842936 770.960202,147.842936 771.200202,161.762936 L713.360202,161.762936 C717.680202,144.722936 729.200202,135.842936 744.080202,135.842936 Z M821.850202,240.002936 L850.650202,240.002936 L850.650202,166.082936 C850.650202,148.082936 863.850202,138.482936 876.810202,138.482936 C892.650202,138.482936 898.890202,149.762936 898.890202,165.362936 L898.890202,240.002936 L927.690202,240.002936 L927.690202,156.962936 C927.690202,129.842936 911.850202,111.602936 885.450202,111.602936 C869.130202,111.602936 857.850202,119.042936 850.650202,127.442936 L850.650202,114.002936 L821.850202,114.002936 L821.850202,240.002936 Z M1012.0402,67.6829356 L946.760202,240.002936 L977.240202,240.002936 L991.880202,200.642936 L1066.2802,200.642936 L1081.1602,240.002936 L1112.1202,240.002936 L1046.8402,67.6829356 L1012.0402,67.6829356 Z M1028.8402,101.762936 L1056.2002,173.762936 L1001.9602,173.762936 L1028.8402,101.762936 Z M1161.5602,68.1829356 L1130.8402,68.1829356 L1130.8402,240.502936 L1161.5602,240.502936 L1161.5602,68.1829356 Z M294.930202,130.972936 C302.18834,109.178848 299.691687,85.3130323 288.080202,65.4929356 C270.620202,35.0929356 235.520202,19.4529356 201.240202,26.8129356 C185.99323,9.63370652 164.079235,-0.137027113 141.110202,0.00145227174 C106.070202,-0.07706439 74.9802022,22.4829356 64.2002022,55.8229356 C41.6893288,60.4315603 22.2599272,74.5252569 10.8902022,94.4929356 C-6.69979784,124.812936 -2.68979784,163.032936 20.8102022,189.032936 C13.5520645,210.827023 16.0487175,234.692839 27.6602022,254.512936 C45.1202022,284.912936 80.2202022,300.552936 114.500202,293.192936 C129.744266,310.374925 151.661101,320.14328 174.630202,319.994646 C209.690202,320.082936 240.790202,297.502936 251.570202,264.132936 C274.081076,259.524311 293.510477,245.430614 304.880202,225.462936 C322.450202,195.142936 318.430202,156.952936 294.940202,130.952936 L294.930202,130.972936 Z M174.650202,299.08301 C160.621158,299.105048 147.031369,294.191626 136.260202,285.202936 C136.750202,284.942936 137.600202,284.472936 138.150202,284.132936 L201.870202,247.332936 C205.12922,245.480327 207.133177,242.011646 207.110202,238.262936 L207.110202,148.432936 L234.040202,163.982936 C234.330202,164.122936 234.520202,164.402936 234.560202,164.722936 L234.560202,239.112936 C234.520202,272.192936 207.730202,299.012936 174.650202,299.08301 L174.650202,299.08301 Z M45.8102022,244.052936 C38.7816712,231.915078 36.2503899,217.690339 38.6602022,203.872936 C39.1302022,204.152936 39.9602022,204.662936 40.5502022,205.002936 L104.270202,241.802936 C107.500202,243.692936 111.500202,243.692936 114.740202,241.802936 L192.530202,196.882936 L192.530202,227.982936 C192.550202,228.302936 192.400202,228.612936 192.150202,228.812936 L127.740202,266.002936 C99.0502022,282.522936 62.4102022,272.702936 45.8202022,244.052936 L45.8102022,244.052936 Z M29.0402022,104.962936 C36.0402022,92.8029356 47.0902022,83.5029356 60.2502022,78.6729356 C60.2502022,79.2229356 60.2202022,80.1929356 60.2202022,80.8729356 L60.2202022,154.482936 C60.2002022,158.222936 62.2002022,161.692936 65.4502022,163.542936 L143.240202,208.452936 L116.310202,224.002936 C116.040202,224.182936 115.700202,224.212936 115.400202,224.082936 L50.9802022,186.862936 C22.3502022,170.282936 12.5302022,133.652936 29.0302022,104.972936 L29.0402022,104.962936 Z M250.300202,156.452936 L172.510202,111.532936 L199.440202,95.9929356 C199.710202,95.8129356 200.050202,95.7829356 200.350202,95.9129356 L264.770202,133.102936 C293.450202,149.672936 303.280202,186.362936 286.710202,215.042936 C279.702625,227.181298 268.662897,236.480146 255.510202,241.322936 L255.510202,165.512936 C255.540202,161.772936 253.550202,158.312936 250.310202,156.452936 L250.300202,156.452936 Z M277.100202,116.112936 C276.630202,115.822936 275.800202,115.322936 275.210202,114.982936 L211.490202,78.1829356 C208.256112,76.2928309 204.254293,76.2928309 201.020202,78.1829356 L123.230202,123.102936 L123.230202,92.0029356 C123.210202,91.6829356 123.360202,91.3729356 123.610202,91.1729356 L188.020202,54.0129356 C216.710202,37.4629356 253.390202,47.3129356 269.930202,76.0129356 C276.920588,88.1354582 279.450011,102.321451 277.080202,116.112936 L277.100202,116.112936 Z M108.590202,171.542936 L81.6502022,155.992936 C81.3621705,155.850906 81.1662212,155.572055 81.1302022,155.252936 L81.1302022,80.8629356 C81.1502022,47.7429356 108.020202,20.9029356 141.140202,20.9229244 C155.150202,20.9229244 168.710202,25.8429356 179.480202,34.8029356 C178.990202,35.0629356 178.150202,35.5329356 177.590202,35.8729356 L113.870202,72.6729356 C110.611842,74.5212955 108.607456,77.9868939 108.630202,81.7329356 L108.590202,171.522936 L108.590202,171.542936 Z M123.220202,140.002936 L157.870202,119.992936 L192.520202,139.992936 L192.520202,180.002936 L157.870202,200.002936 L123.220202,180.002936 L123.220202,140.002936 Z" id="形状"></path>
        </g>
    </g>
</svg>