<?xml version="1.0" encoding="UTF-8"?>
<svg width="512px" height="512px" viewBox="0 0 512 512" version="1.1" xmlns="http://www.w3.org/2000/svg" xmlns:xlink="http://www.w3.org/1999/xlink">
    <title>rolitt-logo-yellow-512</title>
    <defs>
        <polygon id="path-1" points="0 162.831325 472.210843 162.831325 472.210843 0 0 0"></polygon>
    </defs>
    <g id="rolitt-logo-yellow-512" stroke="none" stroke-width="1" fill="none" fill-rule="evenodd">
        <rect fill="#EBFF7F" x="0" y="0" width="512" height="512"></rect>
        <g id="rolitt" transform="translate(18.000000, 174.000000)">
            <path d="M172.655938,29.6927711 C183.628819,29.6927711 192.524096,38.6091567 192.524096,49.6080759 C192.524096,58.7515842 186.376785,66.4559039 177.998903,68.7950003 C186.717316,78.8901881 191.979091,92.0144418 191.85984,106.195297 C191.58131,139.586518 165.785649,164.572735 132.425371,163.770367 C101.063861,163.017254 76.1322757,137.481295 76.6339459,106.627463 C76.8772785,91.6737715 81.9642614,78.5369627 90.4787802,68.5923344 C82.4467553,66.0393539 76.626506,58.5050238 76.626506,49.6080759 C76.626506,38.6091567 85.5217835,29.6927711 96.4946644,29.6927711 C107.467545,29.6927711 116.362823,38.6091567 116.362823,49.6080759 C116.362823,50.3208925 116.325462,51.0249625 116.252596,51.7184254 C122.376071,49.8045719 129.011761,48.8357552 136.011443,48.9538841 C141.897213,49.0529154 147.57772,50.0725518 152.915576,51.8719776 C152.830883,51.1292713 152.78778,50.3737192 152.78778,49.6080759 C152.78778,38.6091567 161.683057,29.6927711 172.655938,29.6927711 Z M134.794457,72.8628628 C116.265893,72.7230442 102.378965,87.0083731 102.29631,106.292216 C102.215962,125.790554 115.637618,139.847089 134.466868,139.982141 C152.308603,140.110838 166.293649,125.458485 166.249443,106.679895 C166.206609,87.8075634 152.428877,72.996326 134.794457,72.8628628 Z" id="Fill-1" fill="#000000"></path>
            <path d="M392.884069,146.157246 C393.068193,163.426249 393.026924,163.457935 375.416071,162.507348 C354.563996,161.382486 341.50387,148.660459 340.691184,127.834675 C340.135636,113.604383 340.475314,99.3392362 340.419759,85.0883481 C340.408648,82.2397547 340.472139,78.3708644 340.472139,74.8790403 C332.084496,74.8790403 331.536276,74.8790403 323.746988,74.8790403 L323.746988,52.8763464 C329.194496,52.8289539 323.694608,52.8080841 340.419759,52.8763464 L340.472139,21.0821356 C357.361427,21.0208748 365.808186,21.2454698 365.812419,21.7559209 C365.816652,22.2663719 365.816652,32.6398471 365.812419,52.8763464 L391.802068,52.8763464 C392.536455,52.8763464 393.203112,54.0009743 393.230096,54.2148564 C395.950691,75.2862085 396.786493,74.8045776 375.416071,74.8790403 C372.80341,74.8881438 370.000278,74.8790403 366.074938,74.8790403 C366.074938,84.7207876 366.047955,94.5704565 366.074938,103.938494 C366.095573,111.064731 365.997162,118.19572 366.270174,125.31245 C366.6162,134.346198 370.178053,138.051905 379.257285,139.043684 C383.412779,139.496797 387.612718,139.544327 392.536455,139.816828 C392.688834,142.510159 392.865022,144.333702 392.884069,146.157246 Z" id="Fill-5" fill="#000000"></path>
            <path d="M475.257563,146.157246 C475.441687,163.426249 475.400418,163.457935 457.789565,162.507348 C436.93749,161.382486 423.877364,148.660459 423.064678,127.834675 C422.50913,113.604383 422.848808,99.3392362 422.793253,85.0883481 C422.782142,82.2397547 422.845633,78.3708644 422.845633,74.8790403 C414.45799,74.8790403 413.90977,74.8790403 406.120482,74.8790403 L406.120482,52.8763464 C411.56799,52.8289539 406.068102,52.8080841 422.793253,52.8763464 L422.845633,21.0821356 C439.734921,21.0208748 448.18168,21.2454698 448.185913,21.7559209 C448.190146,22.2663719 448.190146,32.6398471 448.185913,52.8763464 L474.175562,52.8763464 C474.909949,52.8763464 475.576606,54.0009743 475.60359,54.2148564 C478.324185,75.2862085 479.159987,74.8045776 457.789565,74.8790403 C455.176904,74.8881438 452.373772,74.8790403 448.448432,74.8790403 C448.448432,84.7207876 448.421449,94.5704565 448.448432,103.938494 C448.469067,111.064731 448.370656,118.19572 448.643668,125.31245 C448.989694,134.346198 452.551547,138.051905 461.630779,139.043684 C465.786273,139.496797 469.986212,139.544327 474.909949,139.816828 C475.062328,142.510159 475.238516,144.333702 475.257563,146.157246 Z" id="Fill-5" fill="#000000"></path>
            <path d="M257.656627,139.651256 L257.656627,160.234235 C235.342167,166.309924 216.62855,155.096797 216.090166,133.222734 C215.021314,89.8037084 215.757634,46.3403806 215.779803,2.89445721 C215.779803,2.41979401 216.194676,1.9451308 216.65547,0.957831325 L240.4109,0.957831325 C240.635755,4.63488898 241.015791,7.98126459 241.015791,11.3292224 C241.031626,48.2010604 240.955618,85.0728984 240.977787,121.946319 C240.987288,136.920361 242.22874,138.214609 257.656627,139.651256" id="Fill-7" fill="#000000"></path>
            <path d="M63.9603474,74.9900768 C59.0268439,74.6536778 55.1371492,74.1538396 51.2490408,74.1681207 C38.4488994,74.2157244 30.8535249,81.2483683 30.6076429,94.0775483 C30.2285087,113.860033 30.1428466,133.656799 30.4743907,153.439283 C30.5854342,160.062536 28.5358887,162.418916 21.9541826,161.76992 C16.7525884,161.257387 11.4605731,161.666778 5.49595151,161.666778 C5.26910553,158.848643 4.93597507,156.590644 4.9280434,154.331058 C4.85824463,134.805633 4.70595642,115.280208 4.84714028,95.7563699 C5.06605459,65.8930219 26.3324687,47.0673704 55.987425,50.1330446 C61.499941,50.7027014 64.7979325,52.4576888 64.0761499,58.9476513 C63.5018964,64.1031251 63.9603474,69.3744345 63.9603474,74.9900768" id="Fill-9" fill="#000000"></path>
            <mask id="mask-2" fill="white">
                <use xlink:href="#path-1"></use>
            </mask>
            <g id="Clip-12"></g>
            <path d="M290.222892,42.9399204 C298.686822,42.9399204 305.548193,36.1149238 305.548193,27.6958638 C305.548193,19.2768038 298.686822,12.4518072 290.222892,12.4518072 C281.758961,12.4518072 274.89759,19.2768038 274.89759,27.6958638 C274.89759,36.1149238 281.758961,42.9399204 290.222892,42.9399204 Z M277.56286,49.5677711 L302.882923,49.5677711 L302.882923,160.915663 L277.56286,160.915663 Z" id="Fill-12" fill="#000000" mask="url(#mask-2)"></path>
        </g>
    </g>
</svg>