<?xml version="1.0" encoding="UTF-8"?>
<svg width="1200px" height="630px" viewBox="0 0 1200 630" version="1.1" xmlns="http://www.w3.org/2000/svg" xmlns:xlink="http://www.w3.org/1999/xlink">
    <title>rolitt-partnership</title>
    <defs>
        <polygon id="path-1" points="0 421 1188 421 1188 0 0 0"></polygon>
        <path d="M66.3998227,102.188602 L32.8244681,102.188602 L32.8244681,159 L0,159 L0,1 L68.8670213,1 C84.7429078,1 97.4007092,5.07327001 106.840426,13.21981 C116.280142,21.3663501 121,33.9791949 121,51.0583446 C121,69.7096336 116.280142,82.8941655 106.840426,90.6119403 C97.4007092,98.3297151 83.9205083,102.188602 66.3998227,102.188602 Z M81.8466312,69.2808684 C86.1374113,65.4934419 88.2828014,59.4907282 88.2828014,51.2727273 C88.2828014,43.0547264 86.1195331,37.1949344 81.7929965,33.6933514 C77.4664598,30.1917684 71.4057329,28.4409769 63.6108156,28.4409769 L32.8244681,28.4409769 L32.8244681,74.9620081 L63.6108156,74.9620081 C71.4057329,74.9620081 77.4843381,73.0682949 81.8466312,69.2808684 Z" id="path-3"></path>
        <path d="M148.389814,54.5269565 C156.50604,44.1756522 170.440091,39 190.191969,39 C203.048645,39 214.468821,41.5518841 224.452498,46.6556522 C234.436174,51.7594203 239.428012,61.3918841 239.428012,75.5530435 L239.428012,129.466087 C239.428012,133.204058 239.499837,137.732754 239.643487,143.052174 C239.858962,147.077681 240.469474,149.809275 241.475024,151.246957 C242.480575,152.684638 243.9889,153.870725 246,154.805217 L246,159.333913 L212.601371,159.333913 C211.667646,156.961739 211.021221,154.733333 210.662096,152.648696 C210.302971,150.564058 210.015671,148.191884 209.800196,145.532174 C205.56252,150.132754 200.67842,154.050435 195.147894,157.285217 C188.539993,161.095072 181.070193,163 172.738492,163 C162.10839,163 153.327783,159.962899 146.39667,153.888696 C139.465557,147.814493 136,139.206377 136,128.064348 C136,113.615652 141.566438,103.156522 152.699314,96.6869565 C158.80444,93.1646377 167.782566,90.6486957 179.633692,89.1391304 L190.084231,87.8452174 C195.758407,87.1263768 199.81652,86.2278261 202.25857,85.1495652 C206.639896,83.2805797 208.830558,80.3692754 208.830558,76.4156522 C208.830558,71.5994203 207.160627,68.2747826 203.820764,66.4417391 C200.480901,64.6086957 195.578844,63.6921739 189.114594,63.6921739 C181.860268,63.6921739 176.72478,65.4892754 173.708129,69.0834783 C171.553379,71.7431884 170.116879,75.3373913 169.398629,79.866087 L139.770813,79.866087 C140.417238,69.5866667 143.290238,61.1402899 148.389814,54.5269565 Z M171.230167,137.121739 C174.103167,139.493913 177.622592,140.68 181.788443,140.68 C188.396343,140.68 194.483513,138.73913 200.049951,134.857391 C205.616389,130.975652 208.507346,123.895072 208.722821,113.615652 L208.722821,102.186087 C206.783546,103.408116 204.826314,104.396522 202.851126,105.151304 C200.875939,105.906087 198.164545,106.606957 194.716944,107.253913 L187.821743,108.547826 C181.357493,109.697971 176.72478,111.09971 173.923604,112.753043 C169.183154,115.556522 166.812929,119.905507 166.812929,125.8 C166.812929,131.047536 168.285341,134.821449 171.230167,137.121739 Z" id="path-4"></path>
        <path d="M326.061611,70.0752688 C313.562401,70.0752688 305.169036,74.0896057 300.881517,82.1182796 C298.483412,86.6344086 297.28436,93.5878136 297.28436,102.978495 L297.28436,159 L266,159 L266,41.7956989 L295.649289,41.7956989 L295.649289,62.2258065 C300.445498,54.4121864 304.624013,49.0716846 308.184834,46.2043011 C313.99842,41.4014337 321.556082,39 330.85782,39 C331.439179,39 331.9297,39.0179211 332.329384,39.0537634 C332.729068,39.0896057 333.619273,39.1433692 335,39.2150538 L335,70.6129032 C333.037915,70.3978495 331.293839,70.2544803 329.767773,70.1827957 C328.241706,70.1111111 327.006319,70.0752688 326.061611,70.0752688 Z" id="path-5"></path>
        <path d="M405,138.417208 L405,161.397618 L390.638298,161.937065 C376.312057,162.440548 366.524823,159.923132 361.276596,154.384817 C357.87234,150.860435 356.170213,145.430009 356.170213,138.09354 L356.170213,65.6998511 L340,65.6998511 L340,43.7983328 L356.170213,43.7983328 L356.170213,11 L386.170213,11 L386.170213,43.7983328 L405,43.7983328 L405,65.6998511 L386.170213,65.6998511 L386.170213,127.844061 C386.170213,132.663114 386.77305,135.666032 387.978723,136.852813 C389.184397,138.039595 392.87234,138.632986 399.042553,138.632986 C399.964539,138.632986 400.939716,138.615004 401.968085,138.579041 C402.996454,138.543078 404.007092,138.489134 405,138.417208 Z" id="path-6"></path>
        <path d="M481.453347,64.483871 C470.963151,64.483871 463.764706,68.8924731 459.858012,77.7096774 C457.832319,82.3691756 456.819473,88.3189964 456.819473,95.5591398 L456.819473,159 L426,159 L426,42.0107527 L455.842799,42.0107527 L455.842799,59.1075269 C459.821839,53.0860215 463.58384,48.7491039 467.128803,46.0967742 C473.495267,41.3655914 481.561866,39 491.3286,39 C503.555105,39 513.556964,42.172043 521.334178,48.516129 C529.111393,54.8602151 533,65.3799283 533,80.0752688 L533,159 L501.312373,159 L501.312373,87.7096774 C501.312373,81.5448029 500.480392,76.8136201 498.81643,73.516129 C495.77789,67.4946237 489.990196,64.483871 481.453347,64.483871 Z" id="path-7"></path>
        <path d="M660.463039,125.471861 C659.675277,132.470418 656.058736,139.577201 649.613415,146.792208 C639.587359,158.264069 625.550882,164 607.503983,164 C592.608129,164 579.466835,159.165945 568.080101,149.497835 C556.693367,139.829726 551,124.10101 551,102.311688 C551,81.8932179 556.138353,66.2366522 566.41506,55.3419913 C576.691767,44.4473304 590.030001,39 606.429763,39 C616.169359,39 624.942157,40.8398268 632.748158,44.5194805 C640.554158,48.1991342 646.999479,54.007215 652.084121,61.9437229 C656.667461,68.9422799 659.63947,77.0591631 661.000149,86.2943723 C661.78791,91.7056277 662.110176,99.4978355 661.966947,109.670996 L581.83012,109.670996 C582.259808,121.503608 585.947964,129.800866 592.894588,134.562771 C597.119854,137.520924 602.204496,139 608.148515,139 C614.450607,139 619.571056,137.196248 623.509864,133.588745 C625.658304,131.640693 627.556093,128.935065 629.203231,125.471861 L660.463039,125.471861 Z M630.170029,89.3246753 C629.668726,81.1717172 627.215923,74.9848485 622.811621,70.7640693 C618.407318,66.54329 612.946698,64.4329004 606.429763,64.4329004 C599.339909,64.4329004 593.843482,66.6695527 589.940482,71.1428571 C586.037482,75.6161616 583.58468,81.6767677 582.582074,89.3246753 L630.170029,89.3246753 Z" id="path-8"></path>
        <path d="M742.061611,70.0752688 C729.562401,70.0752688 721.169036,74.0896057 716.881517,82.1182796 C714.483412,86.6344086 713.28436,93.5878136 713.28436,102.978495 L713.28436,159 L682,159 L682,41.7956989 L711.649289,41.7956989 L711.649289,62.2258065 C716.445498,54.4121864 720.624013,49.0716846 724.184834,46.2043011 C729.99842,41.4014337 737.556082,39 746.85782,39 C747.439179,39 747.9297,39.0179211 748.329384,39.0537634 C748.729068,39.0896057 749.619273,39.1433692 751,39.2150538 L751,70.6129032 C749.037915,70.3978495 747.293839,70.2544803 745.767773,70.1827957 C744.241706,70.1111111 743.006319,70.0752688 742.061611,70.0752688 Z" id="path-9"></path>
        <path d="M849.965829,47.7435233 C859.142379,53.644502 864.411725,63.7913069 865.773869,78.1839378 L835.125628,78.1839378 C834.695477,74.2259643 833.584255,71.0955671 831.79196,68.7927461 C828.422446,64.6188831 822.687102,62.5319516 814.58593,62.5319516 C807.918593,62.5319516 803.169012,63.5754174 800.337186,65.6623489 C797.50536,67.7492804 796.089447,70.1960276 796.089447,73.0025907 C796.089447,76.5287853 797.594975,79.0834773 800.60603,80.6666667 C803.617085,82.3218192 814.263317,85.1643638 832.544724,89.1943005 C844.732328,92.0728267 853.873032,96.4265976 859.966834,102.255613 C865.988945,108.156592 869,115.532815 869,124.384283 C869,136.042314 864.68057,145.559442 856.041709,152.935665 C847.402848,160.311888 834.050251,164 815.98392,164 C797.559129,164 783.955611,160.095999 775.173367,152.287997 C766.391122,144.479994 762,134.531088 762,122.441278 L793.078392,122.441278 C793.723618,127.910478 795.121608,131.796488 797.272362,134.099309 C801.072027,138.201209 808.097822,140.252159 818.349749,140.252159 C824.371859,140.252159 829.157286,139.352619 832.70603,137.553541 C836.254774,135.754462 838.029146,133.055843 838.029146,129.457686 C838.029146,126.003454 836.59531,123.376799 833.727638,121.57772 C830.859966,119.778641 820.213735,116.684226 801.788945,112.294473 C788.525963,108.984168 779.170184,104.846287 773.721608,99.880829 C768.273032,94.9873345 765.548744,87.9349453 765.548744,78.7236615 C765.548744,67.8572251 769.796482,58.5200058 778.29196,50.7120035 C786.787437,42.9040012 798.742044,39 814.155779,39 C828.780905,39 840.717588,41.9145078 849.965829,47.7435233 Z" id="path-10"></path>
        <path d="M998,90.1640572 L998,159 L966.620549,159 L966.620549,87.6902655 C966.620549,81.3803041 965.542218,76.2893125 963.385554,72.4172907 C960.581892,66.9677785 955.262123,64.2430225 947.426246,64.2430225 C939.302815,64.2430225 933.138352,66.9498525 928.932859,72.3635126 C924.727365,77.7771727 922.624619,85.5032902 922.624619,95.5418652 L922.624619,159 L892,159 L892,1 L922.624619,1 L922.624619,57.0367597 C927.081723,50.2248695 932.239742,45.4744724 938.098678,42.7855684 C943.957613,40.0966644 950.122075,38.7522124 956.592065,38.7522124 C963.852831,38.7522124 970.448627,40.0070343 976.379451,42.516678 C982.310275,45.0263218 987.180739,48.8624915 990.990844,54.0251872 C994.225839,58.3991377 996.202781,62.8985705 996.921668,67.5234854 C997.640556,72.1484003 998,79.6952575 998,90.1640572 Z" id="path-11"></path>
        <path d="M1058,42.4005394 L1058,160 L1027,160 L1027,42.4005394 L1058,42.4005394 Z M1058,0 L1058,28.3749157 L1027,28.3749157 L1027,0 L1058,0 Z" id="path-12"></path>
        <path d="M1185.83476,55.169151 C1195.27825,65.2819183 1200,80.1283215 1200,99.7083603 C1200,120.364226 1195.36768,136.107151 1186.10304,146.937135 C1176.8384,157.76712 1164.90883,163.182113 1150.31434,163.182113 C1141.01393,163.182113 1133.28743,160.851156 1127.13485,156.189242 C1123.7724,153.607259 1120.48148,149.841866 1117.26211,144.893065 L1117.26211,206 L1087,206 L1087,42.5819831 L1116.2963,42.5819831 L1116.2963,59.9027868 C1119.58721,54.8105422 1123.09275,50.794124 1126.81292,47.8535321 C1133.60937,42.617844 1141.69357,40 1151.06553,40 C1164.72998,40 1176.31972,45.0563837 1185.83476,55.169151 Z M1168.45014,101.214517 C1168.45014,92.1775762 1166.39332,84.1806006 1162.27968,77.2235904 C1158.16603,70.2665803 1151.49478,66.7880752 1142.26591,66.7880752 C1131.17695,66.7880752 1123.55777,72.0596241 1119.40836,82.602722 C1117.26211,88.1970188 1116.18898,95.2974725 1116.18898,103.904083 C1116.18898,117.531216 1119.80184,127.10607 1127.02754,132.628645 C1131.32004,135.856124 1136.39949,137.469864 1142.26591,137.469864 C1150.77936,137.469864 1157.27176,134.170663 1161.74311,127.572262 C1166.21447,120.97386 1168.45014,112.187946 1168.45014,101.214517 Z" id="path-13"></path>
    </defs>
    <g id="rolitt-partnership" stroke="none" stroke-width="1" fill="none" fill-rule="evenodd">
        <rect id="1" stroke="#979797" fill="#D8D8D8" x="0.5" y="0.5" width="1199" height="424"></rect>
        <rect id="1" fill="#FFF558" x="0" y="0" width="1200" height="425"></rect>
        <g id="rolitt">
            <path d="M434.771429,77 C462.511903,77 485,100.07285 485,128.534653 C485,152.1958 469.458266,172.132591 448.277406,178.184924 C470.319734,204.307248 483.622177,238.268973 483.320697,274.964891 C482.616547,361.371052 417.402692,426.02766 333.064774,423.951379 C253.77993,422.002554 190.750539,355.923385 192.018809,276.083205 C192.633964,237.388446 205.493833,203.39503 227.018561,177.66159 C206.71469,171.054455 192,151.557637 192,128.534653 C192,100.07285 214.488097,77 242.228571,77 C269.969045,77 292.457143,100.07285 292.457143,128.534653 C292.457143,130.379362 292.362675,132.201433 292.178432,133.996051 C307.659135,129.043134 324.434813,126.536126 342.130701,126.841807 C357.01015,127.098064 371.370696,129.736456 384.865035,134.39262 C384.651802,132.470594 384.542857,130.515677 384.542857,128.534653 C384.542857,100.07285 407.030955,77 434.771429,77 Z M339.054047,188.710855 C292.212095,188.349047 257.104636,225.315063 256.895677,275.21569 C256.692549,325.671361 290.623758,362.045329 338.225871,362.394802 C383.331454,362.727829 418.686965,324.812069 418.575207,276.218883 C418.466918,227.383121 383.635518,189.056216 339.054047,188.710855 Z" id="Fill-1" fill="#FF48C3"></path>
            <path d="M989.624211,376.950094 C990.086603,421.536 989.982964,421.617809 945.756763,419.163539 C893.390868,416.25932 860.592925,383.413005 858.552023,329.644039 C857.156874,292.903616 858.009908,256.073204 857.870393,219.279605 C857.84249,211.924976 858.001936,201.936097 858.001936,192.920745 C836.938014,192.920745 835.561268,192.920745 816,192.920745 L816,136.113178 C829.680347,135.990818 815.868457,135.936935 857.870393,136.113178 L858.001936,54.0254221 C900.416066,53.8672559 921.628446,54.4471259 921.639076,55.7650318 C921.649705,57.0829378 921.649705,83.8656531 921.639076,136.113178 L986.906977,136.113178 C988.751247,136.113178 990.425425,139.016794 990.493189,139.569005 C997.32543,193.971991 999.424384,192.728494 945.756763,192.920745 C939.195576,192.944249 932.15606,192.920745 922.298341,192.920745 C922.298341,218.330621 922.230577,243.760949 922.298341,267.947781 C922.350161,286.346625 922.10302,304.757741 922.788636,323.132043 C923.657614,346.455789 932.602508,356.023352 955.403217,358.583973 C965.838926,359.753842 976.386247,359.876556 988.751247,360.580113 C989.133916,367.533878 989.576377,372.241986 989.624211,376.950094 Z" id="Fill-5" fill="#FF48C3"></path>
            <path d="M1195.62421,376.950094 C1196.0866,421.536 1195.98296,421.617809 1151.75676,419.163539 C1099.39087,416.25932 1066.59293,383.413005 1064.55202,329.644039 C1063.15687,292.903616 1064.00991,256.073204 1063.87039,219.279605 C1063.84249,211.924976 1064.00194,201.936097 1064.00194,192.920745 C1042.93801,192.920745 1041.56127,192.920745 1022,192.920745 L1022,136.113178 C1035.68035,135.990818 1021.86846,135.936935 1063.87039,136.113178 L1064.00194,54.0254221 C1106.41607,53.8672559 1127.62845,54.4471259 1127.63908,55.7650318 C1127.64971,57.0829378 1127.64971,83.8656531 1127.63908,136.113178 L1192.90698,136.113178 C1194.75125,136.113178 1196.42542,139.016794 1196.49319,139.569005 C1203.32543,193.971991 1205.42438,192.728494 1151.75676,192.920745 C1145.19558,192.944249 1138.15606,192.920745 1128.29834,192.920745 C1128.29834,218.330621 1128.23058,243.760949 1128.29834,267.947781 C1128.35016,286.346625 1128.10302,304.757741 1128.78864,323.132043 C1129.65761,346.455789 1138.60251,356.023352 1161.40322,358.583973 C1171.83893,359.753842 1182.38625,359.876556 1194.75125,360.580113 C1195.13392,367.533878 1195.57638,372.241986 1195.62421,376.950094 Z" id="Fill-5" fill="#FF48C3"></path>
            <path d="M648,362.274759 L648,415.741806 C592.405227,431.524222 545.78168,402.396621 544.440336,345.575812 C541.777373,232.789073 543.611858,119.887254 543.66709,7.0306453 C543.66709,5.797644 544.700714,4.5646427 545.848747,2 L605.033588,2 C605.593797,11.5516501 606.540628,20.2443092 606.540628,28.9410784 C606.580079,124.720619 606.390713,220.50016 606.445945,316.283811 C606.469616,355.180892 609.562598,358.542875 648,362.274759" id="Fill-7" fill="#FF48C3"></path>
            <path d="M159.465796,193.942318 C147.170572,193.074802 137.476717,191.785803 127.786816,191.822632 C95.8864436,191.945394 76.9573342,210.081397 76.3445497,243.165689 C75.3996756,294.18138 75.1861894,345.233901 76.0124601,396.249593 C76.2892014,413.329844 71.1813465,419.406551 54.7784904,417.732899 C41.8151341,416.411164 28.6264313,417.466915 13.7614665,417.466915 C13.1961234,410.19942 12.3658993,404.376421 12.3461321,398.549329 C12.1721804,348.196551 11.7926494,297.843773 12.1445062,247.495086 C12.6900821,170.482548 65.6900071,121.934367 139.595766,129.840224 C153.333998,131.309273 161.553216,135.835089 159.754397,152.571608 C158.323249,165.866706 159.465796,179.460524 159.465796,193.942318" id="Fill-9" fill="#FF48C3"></path>
            <mask id="mask-2" fill="white">
                <use xlink:href="#path-1"></use>
            </mask>
            <g id="Clip-12"></g>
            <path d="M730,110.0625 C751.539105,110.0625 769,92.3637565 769,70.53125 C769,48.6987435 751.539105,31 730,31 C708.460895,31 691,48.6987435 691,70.53125 C691,92.3637565 708.460895,110.0625 730,110.0625 Z M697.782609,127.25 L762.217391,127.25 L762.217391,416 L697.782609,416 Z" id="Fill-12" fill="#FF48C3" mask="url(#mask-2)"></path>
        </g>
        <rect id="1" fill="#0EFCFF" x="0" y="425" width="1200" height="205"></rect>
        <g id="Partnership" transform="translate(0.000000, 424.000000)" fill-rule="nonzero">
            <g id="1">
                <use fill="#FFFFFF" xlink:href="#path-3"></use>
                <use fill="#0040FF" xlink:href="#path-3"></use>
            </g>
            <g id="1">
                <use fill="#FFFFFF" xlink:href="#path-4"></use>
                <use fill="#0040FF" xlink:href="#path-4"></use>
            </g>
            <g id="1">
                <use fill="#FFFFFF" xlink:href="#path-5"></use>
                <use fill="#0040FF" xlink:href="#path-5"></use>
            </g>
            <g id="1">
                <use fill="#FFFFFF" xlink:href="#path-6"></use>
                <use fill="#0040FF" xlink:href="#path-6"></use>
            </g>
            <g id="1">
                <use fill="#FFFFFF" xlink:href="#path-7"></use>
                <use fill="#0040FF" xlink:href="#path-7"></use>
            </g>
            <g id="1">
                <use fill="#FFFFFF" xlink:href="#path-8"></use>
                <use fill="#0040FF" xlink:href="#path-8"></use>
            </g>
            <g id="1">
                <use fill="#FFFFFF" xlink:href="#path-9"></use>
                <use fill="#0040FF" xlink:href="#path-9"></use>
            </g>
            <g id="1">
                <use fill="#FFFFFF" xlink:href="#path-10"></use>
                <use fill="#0040FF" xlink:href="#path-10"></use>
            </g>
            <g id="1">
                <use fill="#FFFFFF" xlink:href="#path-11"></use>
                <use fill="#0040FF" xlink:href="#path-11"></use>
            </g>
            <g id="1" opacity="0.100000001">
                <use fill="#FFFFFF" xlink:href="#path-12"></use>
                <use fill="#0040FF" xlink:href="#path-12"></use>
            </g>
            <g id="1">
                <use fill="#FFFFFF" xlink:href="#path-13"></use>
                <use fill="#0040FF" xlink:href="#path-13"></use>
            </g>
        </g>
    </g>
</svg>