<?xml version="1.0" encoding="UTF-8"?>
<svg width="1200px" height="600px" viewBox="0 0 1200 600" version="1.1" xmlns="http://www.w3.org/2000/svg" xmlns:xlink="http://www.w3.org/1999/xlink">
    <title>solution</title>
    <defs>
        <polygon id="path-1" points="0 421 1188 421 1188 0 0 0"></polygon>
        <path d="M67.5352113,0 C49.6866197,0 34.9735915,3.88140162 23.6373239,11.6442049 C10.8538732,19.8921833 4.58274648,31.7789757 4.58274648,46.819407 C4.58274648,61.3746631 11.0950704,72.5336927 24.3609155,80.296496 C29.9084507,83.2075472 43.1742958,88.0592992 63.9172535,94.3665768 C83.2130282,99.9460916 95.5140845,104.070081 100.338028,106.981132 C111.674296,113.045822 117.463028,121.536388 117.463028,132.45283 C117.463028,141.671159 113.121479,148.948787 104.43838,154.285714 C95.7552817,159.622642 84.1778169,162.291105 70.1883803,162.291105 C54.7517606,162.291105 43.1742958,158.894879 35.2147887,152.587601 C26.5316901,145.552561 21.2253521,134.393531 19.5369718,119.3531 L0,119.3531 C1.4471831,140.700809 8.92429577,156.469003 22.431338,166.90027 C34.0088028,175.633423 49.9278169,180 70.1883803,180 C90.6901408,180 106.850352,175.633423 118.910211,167.142857 C130.97007,158.409704 137,146.280323 137,131.239892 C137,115.471698 129.764085,103.342318 115.533451,94.6091644 C108.297535,90.2425876 93.3433099,84.6630728 70.6707746,77.8706199 C54.028169,73.0188679 43.415493,69.3800539 39.0739437,66.9541779 C29.1848592,61.6172507 24.3609155,54.5822102 24.3609155,45.8490566 C24.3609155,35.902965 28.4612676,28.6253369 36.6619718,23.7735849 C43.8978873,19.4070081 53.7869718,17.4663073 66.5704225,17.4663073 C80.5598592,17.4663073 91.4137324,20.3773585 99.1320423,26.6846361 C106.609155,32.7493261 111.433099,41.967655 113.603873,54.5822102 L133.140845,54.5822102 C131.452465,36.3881402 124.940141,22.5606469 113.362676,13.3423181 C102.267606,4.36657682 86.8309859,0 67.5352113,0 Z" id="path-3"></path>
        <path d="M239.622255,0 C213.215227,0 192.676428,8.73315364 177.516837,26.1994609 C163.090776,42.6954178 156,64.0431267 156,90.2425876 C156,116.199461 163.090776,137.54717 177.516837,154.043127 C192.676428,171.266846 213.215227,180 239.377745,180 C265.540264,180 286.323572,171.266846 301.483163,154.043127 C315.664714,137.54717 323,116.442049 323,90.2425876 C323,63.8005391 315.664714,42.4528302 301.483163,25.9568733 C286.323572,8.49056604 265.540264,0 239.622255,0 Z M239.622255,17.7088949 C259.672035,17.7088949 275.320644,24.2587601 286.568082,37.6010782 C297.326501,50.7008086 302.95022,68.1671159 302.95022,90.2425876 C302.95022,112.075472 297.326501,129.299191 286.568082,142.398922 C275.320644,155.498652 259.427526,162.291105 239.377745,162.291105 C219.327965,162.291105 203.434846,155.498652 192.187408,141.913747 C181.42899,128.814016 176.04978,111.590296 176.04978,90.2425876 C176.04978,68.6522911 181.42899,51.4285714 192.187408,38.328841 C203.679356,24.5013477 219.572474,17.7088949 239.622255,17.7088949 Z" id="path-4"></path>
        <polygon id="path-5" points="349 5 349 178 469 178 469 160.796919 368.676113 160.796919 368.676113 5"></polygon>
        <path d="M492,3 L492,109.978022 C492,132.589286 497.810526,149.851648 509.431579,162.008242 C521.052632,173.921703 538.242105,180 561,180 C583.757895,180 600.947368,173.921703 612.810526,161.76511 C624.189474,149.851648 630,132.589286 630,109.978022 L630,3 L610.147368,3 L610.147368,110.221154 C610.147368,127.240385 606.273684,140.126374 598.768421,148.879121 C590.536842,157.875 577.947368,162.494505 561,162.494505 C543.810526,162.494505 531.221053,157.875 523.231579,148.879121 C515.484211,140.126374 511.852632,127.240385 511.852632,110.221154 L511.852632,3 L492,3 Z" id="path-6"></path>
        <polygon id="path-7" points="651 5 651 22.2030812 712.6 22.2030812 712.6 178 732.4 178 732.4 22.2030812 794 22.2030812 794 5"></polygon>
        <polygon id="path-8" points="816 5 816 178 836 178 836 5"></polygon>
        <path d="M948.622255,0 C922.215227,0 901.676428,8.73315364 886.516837,26.1994609 C872.090776,42.6954178 865,64.0431267 865,90.2425876 C865,116.199461 872.090776,137.54717 886.516837,154.043127 C901.676428,171.266846 922.215227,180 948.377745,180 C974.540264,180 995.323572,171.266846 1010.48316,154.043127 C1024.66471,137.54717 1032,116.442049 1032,90.2425876 C1032,63.8005391 1024.66471,42.4528302 1010.48316,25.9568733 C995.323572,8.49056604 974.540264,0 948.622255,0 Z M948.622255,17.7088949 C968.672035,17.7088949 984.320644,24.2587601 995.568082,37.6010782 C1006.3265,50.7008086 1011.95022,68.1671159 1011.95022,90.2425876 C1011.95022,112.075472 1006.3265,129.299191 995.568082,142.398922 C984.320644,155.498652 968.427526,162.291105 948.377745,162.291105 C928.327965,162.291105 912.434846,155.498652 901.187408,141.913747 C890.42899,128.814016 885.04978,111.590296 885.04978,90.2425876 C885.04978,68.6522911 890.42899,51.4285714 901.187408,38.328841 C912.679356,24.5013477 928.572474,17.7088949 948.622255,17.7088949 Z" id="path-9"></path>
        <polygon id="path-10" points="1058 5 1058 178 1077.96522 178 1077.96522 35.7717087 1078.69565 35.7717087 1177.54783 178 1198 178 1198 5 1178.03478 5 1178.03478 145.77451 1177.30435 145.77451 1078.93913 5"></polygon>
    </defs>
    <g id="solution" stroke="none" stroke-width="1" fill="none" fill-rule="evenodd">
        <rect id="矩形" stroke="#979797" fill="#D8D8D8" x="0.5" y="0.5" width="1199" height="424"></rect>
        <rect id="矩形" fill="#1CDF67" x="0" y="0" width="1200" height="425"></rect>
        <g id="rolitt" transform="translate(0.000000, -0.000000)">
            <path d="M434.771429,77 C462.511903,77 485,100.07285 485,128.534653 C485,152.1958 469.458266,172.132591 448.277406,178.184924 C470.319734,204.307248 483.622177,238.268973 483.320697,274.964891 C482.616547,361.371052 417.402692,426.02766 333.064774,423.951379 C253.77993,422.002554 190.750539,355.923385 192.018809,276.083205 C192.633964,237.388446 205.493833,203.39503 227.018561,177.66159 C206.71469,171.054455 192,151.557637 192,128.534653 C192,100.07285 214.488097,77 242.228571,77 C269.969045,77 292.457143,100.07285 292.457143,128.534653 C292.457143,130.379362 292.362675,132.201433 292.178432,133.996051 C307.659135,129.043134 324.434813,126.536126 342.130701,126.841807 C357.01015,127.098064 371.370696,129.736456 384.865035,134.39262 C384.651802,132.470594 384.542857,130.515677 384.542857,128.534653 C384.542857,100.07285 407.030955,77 434.771429,77 Z M339.054047,188.710855 C292.212095,188.349047 257.104636,225.315063 256.895677,275.21569 C256.692549,325.671361 290.623758,362.045329 338.225871,362.394802 C383.331454,362.727829 418.686965,324.812069 418.575207,276.218883 C418.466918,227.383121 383.635518,189.056216 339.054047,188.710855 Z" id="Fill-1" fill="#FF48C3"></path>
            <path d="M989.624211,376.950094 C990.086603,421.536 989.982964,421.617809 945.756763,419.163539 C893.390868,416.25932 860.592925,383.413005 858.552023,329.644039 C857.156874,292.903616 858.009908,256.073204 857.870393,219.279605 C857.84249,211.924976 858.001936,201.936097 858.001936,192.920745 C836.938014,192.920745 835.561268,192.920745 816,192.920745 L816,136.113178 C829.680347,135.990818 815.868457,135.936935 857.870393,136.113178 L858.001936,54.0254221 C900.416066,53.8672559 921.628446,54.4471259 921.639076,55.7650318 C921.649705,57.0829378 921.649705,83.8656531 921.639076,136.113178 L986.906977,136.113178 C988.751247,136.113178 990.425425,139.016794 990.493189,139.569005 C997.32543,193.971991 999.424384,192.728494 945.756763,192.920745 C939.195576,192.944249 932.15606,192.920745 922.298341,192.920745 C922.298341,218.330621 922.230577,243.760949 922.298341,267.947781 C922.350161,286.346625 922.10302,304.757741 922.788636,323.132043 C923.657614,346.455789 932.602508,356.023352 955.403217,358.583973 C965.838926,359.753842 976.386247,359.876556 988.751247,360.580113 C989.133916,367.533878 989.576377,372.241986 989.624211,376.950094 Z" id="Fill-5" fill="#FF48C3"></path>
            <path d="M1195.62421,376.950094 C1196.0866,421.536 1195.98296,421.617809 1151.75676,419.163539 C1099.39087,416.25932 1066.59293,383.413005 1064.55202,329.644039 C1063.15687,292.903616 1064.00991,256.073204 1063.87039,219.279605 C1063.84249,211.924976 1064.00194,201.936097 1064.00194,192.920745 C1042.93801,192.920745 1041.56127,192.920745 1022,192.920745 L1022,136.113178 C1035.68035,135.990818 1021.86846,135.936935 1063.87039,136.113178 L1064.00194,54.0254221 C1106.41607,53.8672559 1127.62845,54.4471259 1127.63908,55.7650318 C1127.64971,57.0829378 1127.64971,83.8656531 1127.63908,136.113178 L1192.90698,136.113178 C1194.75125,136.113178 1196.42542,139.016794 1196.49319,139.569005 C1203.32543,193.971991 1205.42438,192.728494 1151.75676,192.920745 C1145.19558,192.944249 1138.15606,192.920745 1128.29834,192.920745 C1128.29834,218.330621 1128.23058,243.760949 1128.29834,267.947781 C1128.35016,286.346625 1128.10302,304.757741 1128.78864,323.132043 C1129.65761,346.455789 1138.60251,356.023352 1161.40322,358.583973 C1171.83893,359.753842 1182.38625,359.876556 1194.75125,360.580113 C1195.13392,367.533878 1195.57638,372.241986 1195.62421,376.950094 Z" id="Fill-5" fill="#FF48C3"></path>
            <path d="M648,362.274759 L648,415.741806 C592.405227,431.524222 545.78168,402.396621 544.440336,345.575812 C541.777373,232.789073 543.611858,119.887254 543.66709,7.0306453 C543.66709,5.797644 544.700714,4.5646427 545.848747,2 L605.033588,2 C605.593797,11.5516501 606.540628,20.2443092 606.540628,28.9410784 C606.580079,124.720619 606.390713,220.50016 606.445945,316.283811 C606.469616,355.180892 609.562598,358.542875 648,362.274759" id="Fill-7" fill="#FF48C3"></path>
            <path d="M159.465796,193.942318 C147.170572,193.074802 137.476717,191.785803 127.786816,191.822632 C95.8864436,191.945394 76.9573342,210.081397 76.3445497,243.165689 C75.3996756,294.18138 75.1861894,345.233901 76.0124601,396.249593 C76.2892014,413.329844 71.1813465,419.406551 54.7784904,417.732899 C41.8151341,416.411164 28.6264313,417.466915 13.7614665,417.466915 C13.1961234,410.19942 12.3658993,404.376421 12.3461321,398.549329 C12.1721804,348.196551 11.7926494,297.843773 12.1445062,247.495086 C12.6900821,170.482548 65.6900071,121.934367 139.595766,129.840224 C153.333998,131.309273 161.553216,135.835089 159.754397,152.571608 C158.323249,165.866706 159.465796,179.460524 159.465796,193.942318" id="Fill-9" fill="#FF48C3"></path>
            <mask id="mask-2" fill="white">
                <use xlink:href="#path-1"></use>
            </mask>
            <g id="Clip-12"></g>
            <path d="M730,110.0625 C751.539105,110.0625 769,92.3637565 769,70.53125 C769,48.6987435 751.539105,31 730,31 C708.460895,31 691,48.6987435 691,70.53125 C691,92.3637565 708.460895,110.0625 730,110.0625 Z M697.782609,127.25 L762.217391,127.25 L762.217391,416 L697.782609,416 Z" id="Fill-12" fill="#FF48C3" mask="url(#mask-2)"></path>
        </g>
        <rect id="矩形" fill="#0EFCFF" x="0" y="425" width="1200" height="175"></rect>
        <g id="SOLUTION" transform="translate(0.000000, 425.000000)" fill-rule="nonzero">
            <g id="路径">
                <use fill="#FFFFFF" xlink:href="#path-3"></use>
                <use fill="#000000" xlink:href="#path-3"></use>
            </g>
            <g id="形状">
                <use fill="#FFFFFF" xlink:href="#path-4"></use>
                <use fill="#000000" xlink:href="#path-4"></use>
            </g>
            <g id="路径">
                <use fill="#FFFFFF" xlink:href="#path-5"></use>
                <use fill="#000000" xlink:href="#path-5"></use>
            </g>
            <g id="路径">
                <use fill="#FFFFFF" xlink:href="#path-6"></use>
                <use fill="#000000" xlink:href="#path-6"></use>
            </g>
            <g id="路径">
                <use fill="#FFFFFF" xlink:href="#path-7"></use>
                <use fill="#000000" xlink:href="#path-7"></use>
            </g>
            <g id="路径">
                <use fill="#FFFFFF" xlink:href="#path-8"></use>
                <use fill="#000000" xlink:href="#path-8"></use>
            </g>
            <g id="形状">
                <use fill="#FFFFFF" xlink:href="#path-9"></use>
                <use fill="#000000" xlink:href="#path-9"></use>
            </g>
            <g id="路径">
                <use fill="#FFFFFF" xlink:href="#path-10"></use>
                <use fill="#000000" xlink:href="#path-10"></use>
            </g>
        </g>
    </g>
</svg>